<?xml version="1.0" encoding="utf-8"?>
<!-- Generator: Adobe Illustrator 25.1.0, SVG Export Plug-In . SVG Version: 6.00 Build 0)  -->
<svg version="1.1" id="Layer_1" xmlns="http://www.w3.org/2000/svg" xmlns:xlink="http://www.w3.org/1999/xlink" x="0px" y="0px"
	 viewBox="0 0 512 512" style="enable-background:new 0 0 512 512;" xml:space="preserve">
<style type="text/css">
	.st0{clip-path:url(#SVGID_2_);}
	.st1{fill:#FFFFFF;}
	.st2{fill:#0085CA;}
</style>
<g>
	<defs>
		<rect id="SVGID_1_" width="512" height="512"/>
	</defs>
	<clipPath id="SVGID_2_">
		<use xlink:href="#SVGID_1_"  style="overflow:visible;"/>
	</clipPath>
	<g id="favicon" class="st0">
		<g id="Group_1" transform="translate(-150.872 -134.91)">
			<path id="Path_6" class="st1" d="M202.2,140v209.9c0.4,99.1,79,221.1,204.4,291.8C532,571.1,610.7,449,610.8,349.9V140H202.2z"/>
			<path id="Path_7" class="st2" d="M198,134.9l0.3,214.2c0.1,101.1,80.3,225.5,208.3,297.8c128-72.3,208.2-196.7,208.4-297.8V134.9
				H198z M406.6,552.1c-38.8,0-70.2-7.4-70.2-10.3s31.4-10.3,70.2-10.3s70.4,8,70.4,10.6S445.4,552.1,406.6,552.1z M406.6,498.2
				c-59.6,0-107.9-10.9-107.9-15.5s48.4-15.5,107.9-15.5s107.9,10.9,107.9,15.5S466.2,498.2,406.6,498.2L406.6,498.2z M406.6,435.5
				c-73.2,0-132.5-13.4-132.5-19s59.3-19,132.5-19S539,411,539,416.6S479.8,435.5,406.6,435.5L406.6,435.5z M544.2,354.7
				C528,358,467.6,363,406.5,363s-122-5.2-137.6-8.3c-0.8,0.1-1.5-0.5-1.6-1.2c0-0.2,0-0.4,0.1-0.6
				c27.4-71.9,75.1-134.2,137.2-179.5c1.1-0.8,2.7-0.8,3.8,0c62.2,45.3,109.9,107.6,137.2,179.5
				C546.1,353.9,545.3,354.5,544.2,354.7L544.2,354.7z"/>
		</g>
	</g>
</g>
</svg>
